<svg width="143" height="143" viewBox="0 0 143 143" fill="none" xmlns="http://www.w3.org/2000/svg">
<path d="M63.2271 2.38875C64.1583 0.389698 66.5302 -0.474873 68.5257 0.457443L79.3686 5.52353C81.3645 6.45606 82.228 8.83322 81.2973 10.833L20.8614 140.693C20.2065 142.1 18.7972 143 17.2475 143L3.99227 143C1.07486 143 -0.854909 139.964 0.37892 137.315L63.2271 2.38875Z" fill="white"/>
<path d="M79.7875 2.38632C78.8565 0.387049 76.4844 -0.477701 74.4888 0.454679L63.6462 5.5206C61.6503 6.45314 60.7868 8.83029 61.7175 10.8301L122.155 140.693C122.81 142.1 124.219 143 125.769 143L139.008 143C141.925 143 143.855 139.964 142.621 137.315L79.7875 2.38632Z" fill="white"/>
<path d="M76.9824 0H66.0168C65.191 0 64.5215 0.670792 64.5215 1.49826C64.5215 2.32572 65.191 2.99651 66.0168 2.99651H76.9824C77.8083 2.99651 78.4778 2.32572 78.4778 1.49826C78.4778 0.670792 77.8083 0 76.9824 0Z" fill="white"/>
<path d="M66.9967 93.4094C68.7984 89.6055 74.201 89.6055 76.0027 93.4094L96.0326 135.698C97.6021 139.012 95.1902 142.834 91.5295 142.834H51.4698C47.8092 142.834 45.3973 139.012 46.9668 135.698L66.9967 93.4094Z" fill="white"/>
<path d="M74.4904 29.9651H69.506V34.9593H69.7727C70.1175 34.3622 70.7618 33.9605 71.4998 33.9605C72.2377 33.9605 72.882 34.3622 73.2268 34.9593H74.4904V29.9651Z" fill="white"/>
</svg>
