<svg width="27" height="24" viewBox="0 0 27 24" fill="none" xmlns="http://www.w3.org/2000/svg">
<path fill-rule="evenodd" clip-rule="evenodd" d="M9.04145 0C7.25512 0 5.60449 0.952994 4.71133 2.5L0.669873 9.5C-0.22329 11.047 -0.223291 12.953 0.669872 14.5L4.71133 21.5C5.60449 23.047 7.25512 24 9.04145 24H17.1244C18.9107 24 20.5613 23.047 21.4545 21.5L25.4959 14.5C26.3891 12.953 26.3891 11.047 25.4959 9.5L21.4545 2.5C20.5613 0.952996 18.9107 0 17.1244 0H9.04145ZM12.9378 15.8579C15.1486 15.8579 16.9408 14.0657 16.9408 11.8549C16.9408 9.64415 15.1486 7.85197 12.9378 7.85197C10.727 7.85197 8.93484 9.64415 8.93484 11.8549C8.93484 14.0657 10.727 15.8579 12.9378 15.8579Z" fill="white"/>
</svg>
